<svg xmlns="http://www.w3.org/2000/svg" viewBox="0 0 560 220" width="560" height="220" font-family="'JetBrains Mono','SFMono-Regular',ui-monospace,monospace"><rect x="0.5" y="0.5" width="559" height="219" rx="14" fill="#171922" stroke="#2a2e3d"/><text x="280.0" y="32" fill="#e9e7df" font-size="13" text-anchor="middle" font-weight="700">[1 1 1] &#8855; [-1,0,1]&#7488; cycles to build the kernel</text><rect x="40" y="48" width="46" height="46" fill="#1d2030" stroke="#2a2e3d"/><text x="63.0" y="77.0" fill="#ff8278" font-size="17" text-anchor="middle" font-weight="700">-1</text><rect x="40" y="94" width="46" height="46" fill="#1d2030" stroke="#2a2e3d"/><text x="63.0" y="123.0" fill="#5b6072" font-size="17" text-anchor="middle" font-weight="700">0</text><rect x="40" y="140" width="46" height="46" fill="#1d2030" stroke="#2a2e3d"/><text x="63.0" y="169.0" fill="#5cd1e6" font-size="17" text-anchor="middle" font-weight="700">1</text><text x="104" y="123.0" fill="#f4c95d" font-size="22">&#8594;</text><rect x="130" y="48" width="46" height="46" fill="#1d2030" stroke="#2a2e3d"/><text x="153.0" y="77.0" fill="#ff8278" font-size="16" text-anchor="middle" font-weight="700">-1</text><rect x="176" y="48" width="46" height="46" fill="#1d2030" stroke="#2a2e3d"/><text x="199.0" y="77.0" fill="#ff8278" font-size="16" text-anchor="middle" font-weight="700">-1</text><rect x="222" y="48" width="46" height="46" fill="#1d2030" stroke="#2a2e3d"/><text x="245.0" y="77.0" fill="#ff8278" font-size="16" text-anchor="middle" font-weight="700">-1</text><rect x="130" y="94" width="46" height="46" fill="#1d2030" stroke="#2a2e3d"/><text x="153.0" y="123.0" fill="#5b6072" font-size="16" text-anchor="middle" font-weight="700">0</text><rect x="176" y="94" width="46" height="46" fill="#1d2030" stroke="#2a2e3d"/><text x="199.0" y="123.0" fill="#5b6072" font-size="16" text-anchor="middle" font-weight="700">0</text><rect x="222" y="94" width="46" height="46" fill="#1d2030" stroke="#2a2e3d"/><text x="245.0" y="123.0" fill="#5b6072" font-size="16" text-anchor="middle" font-weight="700">0</text><rect x="130" y="140" width="46" height="46" fill="#1d2030" stroke="#2a2e3d"/><text x="153.0" y="169.0" fill="#5cd1e6" font-size="16" text-anchor="middle" font-weight="700">1</text><rect x="176" y="140" width="46" height="46" fill="#1d2030" stroke="#2a2e3d"/><text x="199.0" y="169.0" fill="#5cd1e6" font-size="16" text-anchor="middle" font-weight="700">1</text><rect x="222" y="140" width="46" height="46" fill="#1d2030" stroke="#2a2e3d"/><text x="245.0" y="169.0" fill="#5cd1e6" font-size="16" text-anchor="middle" font-weight="700">1</text></svg>