<svg xmlns="http://www.w3.org/2000/svg" viewBox="0 0 380 380" width="380" height="380" font-family="'JetBrains Mono','SFMono-Regular',ui-monospace,monospace"><rect x="0.5" y="0.5" width="379" height="379" rx="14" fill="#171922" stroke="#2a2e3d"/><path d="M 190 190 L 132.6 51.4 A 150 150 0 0 1 247.4 51.4 Z" fill="#9a72e6" fill-opacity="0.25" stroke="#2a2e3d" stroke-width="1"/><path d="M 190 190 L 247.4 51.4 A 150 150 0 0 1 328.6 132.6 Z" fill="#f4c95d" fill-opacity="0.25" stroke="#2a2e3d" stroke-width="1"/><path d="M 190 190 L 328.6 132.6 A 150 150 0 0 1 328.6 247.4 Z" fill="#5cd1e6" fill-opacity="0.25" stroke="#2a2e3d" stroke-width="1"/><path d="M 190 190 L 328.6 247.4 A 150 150 0 0 1 247.4 328.6 Z" fill="#ff8278" fill-opacity="0.25" stroke="#2a2e3d" stroke-width="1"/><path d="M 190 190 L 247.4 328.6 A 150 150 0 0 1 132.6 328.6 Z" fill="#9a72e6" fill-opacity="0.25" stroke="#2a2e3d" stroke-width="1"/><path d="M 190 190 L 132.6 328.6 A 150 150 0 0 1 51.4 247.4 Z" fill="#f4c95d" fill-opacity="0.25" stroke="#2a2e3d" stroke-width="1"/><path d="M 190 190 L 51.4 247.4 A 150 150 0 0 1 51.4 132.6 Z" fill="#5cd1e6" fill-opacity="0.25" stroke="#2a2e3d" stroke-width="1"/><path d="M 190 190 L 51.4 132.6 A 150 150 0 0 1 132.6 51.4 Z" fill="#ff8278" fill-opacity="0.25" stroke="#2a2e3d" stroke-width="1"/><circle cx="190" cy="190" r="150" fill="none" stroke="#8a90a0" stroke-width="1.5"/><text x="190" y="34" fill="#5cd1e6" font-size="13" text-anchor="middle">vertical edge</text><text x="190" y="358" fill="#5cd1e6" font-size="13" text-anchor="middle">90/-90&#176;</text><text x="344" y="194" fill="#9a72e6" font-size="13">horiz</text><text x="10" y="194" fill="#9a72e6" font-size="13">0/180&#176;</text><text x="302.5" y="100.0" fill="#f4c95d" font-size="12">+45&#176;</text><text x="47.5" y="100.0" fill="#ff8278" font-size="12">-45&#176;</text></svg>