<svg xmlns="http://www.w3.org/2000/svg" viewBox="0 0 292 292" width="292" height="292" font-family="'JetBrains Mono','SFMono-Regular',ui-monospace,monospace"><defs><marker id="ah" markerWidth="9" markerHeight="9" refX="6" refY="4.5" orient="auto"><path d="M0,0 L9,4.5 L0,9 z" fill="#9a72e6"/></marker></defs><rect x="0.5" y="0.5" width="291" height="291" rx="14" fill="#171922" stroke="#2a2e3d"/><rect x="18" y="18" width="64" height="64" fill="#3a3f52" stroke="#2a2e3d"/><text x="50.0" y="56.0" fill="#e9e7df" font-size="17" text-anchor="middle" font-weight="700">60</text><rect x="82" y="18" width="64" height="64" fill="#3a3f52" stroke="#2a2e3d"/><text x="114.0" y="56.0" fill="#e9e7df" font-size="17" text-anchor="middle" font-weight="700">60</text><rect x="146" y="18" width="64" height="64" fill="#3a3f52" stroke="#2a2e3d"/><text x="178.0" y="56.0" fill="#e9e7df" font-size="17" text-anchor="middle" font-weight="700">60</text><rect x="210" y="18" width="64" height="64" fill="#c9cad2" stroke="#2a2e3d"/><text x="242.0" y="56.0" fill="#1a1c24" font-size="17" text-anchor="middle" font-weight="700">120</text><rect x="18" y="82" width="64" height="64" fill="#3a3f52" stroke="#2a2e3d"/><text x="50.0" y="120.0" fill="#e9e7df" font-size="17" text-anchor="middle" font-weight="700">60</text><rect x="82" y="82" width="64" height="64" fill="#3a3f52" stroke="#2a2e3d"/><text x="114.0" y="120.0" fill="#e9e7df" font-size="17" text-anchor="middle" font-weight="700">60</text><rect x="146" y="82" width="64" height="64" fill="#c9cad2" stroke="#2a2e3d"/><text x="178.0" y="120.0" fill="#1a1c24" font-size="17" text-anchor="middle" font-weight="700">120</text><rect x="210" y="82" width="64" height="64" fill="#c9cad2" stroke="#2a2e3d"/><text x="242.0" y="120.0" fill="#1a1c24" font-size="17" text-anchor="middle" font-weight="700">120</text><rect x="18" y="146" width="64" height="64" fill="#3a3f52" stroke="#2a2e3d"/><text x="50.0" y="184.0" fill="#e9e7df" font-size="17" text-anchor="middle" font-weight="700">60</text><rect x="82" y="146" width="64" height="64" fill="#c9cad2" stroke="#2a2e3d"/><text x="114.0" y="184.0" fill="#1a1c24" font-size="17" text-anchor="middle" font-weight="700">120</text><rect x="146" y="146" width="64" height="64" fill="#c9cad2" stroke="#2a2e3d"/><text x="178.0" y="184.0" fill="#1a1c24" font-size="17" text-anchor="middle" font-weight="700">120</text><rect x="210" y="146" width="64" height="64" fill="#c9cad2" stroke="#2a2e3d"/><text x="242.0" y="184.0" fill="#1a1c24" font-size="17" text-anchor="middle" font-weight="700">120</text><rect x="18" y="210" width="64" height="64" fill="#c9cad2" stroke="#2a2e3d"/><text x="50.0" y="248.0" fill="#1a1c24" font-size="17" text-anchor="middle" font-weight="700">120</text><rect x="82" y="210" width="64" height="64" fill="#c9cad2" stroke="#2a2e3d"/><text x="114.0" y="248.0" fill="#1a1c24" font-size="17" text-anchor="middle" font-weight="700">120</text><rect x="146" y="210" width="64" height="64" fill="#c9cad2" stroke="#2a2e3d"/><text x="178.0" y="248.0" fill="#1a1c24" font-size="17" text-anchor="middle" font-weight="700">120</text><rect x="210" y="210" width="64" height="64" fill="#c9cad2" stroke="#2a2e3d"/><text x="242.0" y="248.0" fill="#1a1c24" font-size="17" text-anchor="middle" font-weight="700">120</text><line x1="18.0" y1="210.0" x2="210.0" y2="18.0" stroke="#f4c95d" stroke-width="3" stroke-dasharray="7 6"/><line x1="56.4" y1="56.4" x2="101.19999999999999" y2="101.19999999999999" stroke="#9a72e6" stroke-width="3" marker-end="url(#ah)"/><line x1="120.4" y1="120.4" x2="165.2" y2="165.2" stroke="#9a72e6" stroke-width="3" marker-end="url(#ah)"/><line x1="184.4" y1="184.4" x2="229.2" y2="229.2" stroke="#9a72e6" stroke-width="3" marker-end="url(#ah)"/></svg>