<svg xmlns="http://www.w3.org/2000/svg" viewBox="0 0 396 422" width="396" height="422" font-family="'JetBrains Mono','SFMono-Regular',ui-monospace,monospace"><rect x="0.5" y="0.5" width="395" height="421" rx="14" fill="#171922" stroke="#2a2e3d"/><text x="198.0" y="34" fill="#e9e7df" font-size="14" text-anchor="middle" font-weight="700">5&#215;5 Gaussian kernel, &#963; = 4</text><rect x="18" y="44" width="72" height="72" fill="#9a72e6" fill-opacity="0.12" stroke="#2a2e3d"/><text x="54.0" y="85.0" fill="#e9e7df" font-size="14" text-anchor="middle">0.0352</text><rect x="90" y="44" width="72" height="72" fill="#9a72e6" fill-opacity="0.33" stroke="#2a2e3d"/><text x="126.0" y="85.0" fill="#e9e7df" font-size="14" text-anchor="middle">0.0387</text><rect x="162" y="44" width="72" height="72" fill="#9a72e6" fill-opacity="0.40" stroke="#2a2e3d"/><text x="198.0" y="85.0" fill="#e9e7df" font-size="14" text-anchor="middle">0.0399</text><rect x="234" y="44" width="72" height="72" fill="#9a72e6" fill-opacity="0.33" stroke="#2a2e3d"/><text x="270.0" y="85.0" fill="#e9e7df" font-size="14" text-anchor="middle">0.0387</text><rect x="306" y="44" width="72" height="72" fill="#9a72e6" fill-opacity="0.12" stroke="#2a2e3d"/><text x="342.0" y="85.0" fill="#e9e7df" font-size="14" text-anchor="middle">0.0352</text><rect x="18" y="116" width="72" height="72" fill="#9a72e6" fill-opacity="0.33" stroke="#2a2e3d"/><text x="54.0" y="157.0" fill="#e9e7df" font-size="14" text-anchor="middle">0.0387</text><rect x="90" y="116" width="72" height="72" fill="#9a72e6" fill-opacity="0.56" stroke="#2a2e3d"/><text x="126.0" y="157.0" fill="#e9e7df" font-size="14" text-anchor="middle">0.0425</text><rect x="162" y="116" width="72" height="72" fill="#9a72e6" fill-opacity="0.64" stroke="#2a2e3d"/><text x="198.0" y="157.0" fill="#e9e7df" font-size="14" text-anchor="middle">0.0438</text><rect x="234" y="116" width="72" height="72" fill="#9a72e6" fill-opacity="0.56" stroke="#2a2e3d"/><text x="270.0" y="157.0" fill="#e9e7df" font-size="14" text-anchor="middle">0.0425</text><rect x="306" y="116" width="72" height="72" fill="#9a72e6" fill-opacity="0.33" stroke="#2a2e3d"/><text x="342.0" y="157.0" fill="#e9e7df" font-size="14" text-anchor="middle">0.0387</text><rect x="18" y="188" width="72" height="72" fill="#9a72e6" fill-opacity="0.40" stroke="#2a2e3d"/><text x="54.0" y="229.0" fill="#e9e7df" font-size="14" text-anchor="middle">0.0399</text><rect x="90" y="188" width="72" height="72" fill="#9a72e6" fill-opacity="0.64" stroke="#2a2e3d"/><text x="126.0" y="229.0" fill="#e9e7df" font-size="14" text-anchor="middle">0.0438</text><rect x="162" y="188" width="72" height="72" fill="#9a72e6" fill-opacity="0.72" stroke="#2a2e3d"/><text x="198.0" y="229.0" fill="#e9e7df" font-size="14" text-anchor="middle">0.0452</text><rect x="234" y="188" width="72" height="72" fill="#9a72e6" fill-opacity="0.64" stroke="#2a2e3d"/><text x="270.0" y="229.0" fill="#e9e7df" font-size="14" text-anchor="middle">0.0438</text><rect x="306" y="188" width="72" height="72" fill="#9a72e6" fill-opacity="0.40" stroke="#2a2e3d"/><text x="342.0" y="229.0" fill="#e9e7df" font-size="14" text-anchor="middle">0.0399</text><rect x="18" y="260" width="72" height="72" fill="#9a72e6" fill-opacity="0.33" stroke="#2a2e3d"/><text x="54.0" y="301.0" fill="#e9e7df" font-size="14" text-anchor="middle">0.0387</text><rect x="90" y="260" width="72" height="72" fill="#9a72e6" fill-opacity="0.56" stroke="#2a2e3d"/><text x="126.0" y="301.0" fill="#e9e7df" font-size="14" text-anchor="middle">0.0425</text><rect x="162" y="260" width="72" height="72" fill="#9a72e6" fill-opacity="0.64" stroke="#2a2e3d"/><text x="198.0" y="301.0" fill="#e9e7df" font-size="14" text-anchor="middle">0.0438</text><rect x="234" y="260" width="72" height="72" fill="#9a72e6" fill-opacity="0.56" stroke="#2a2e3d"/><text x="270.0" y="301.0" fill="#e9e7df" font-size="14" text-anchor="middle">0.0425</text><rect x="306" y="260" width="72" height="72" fill="#9a72e6" fill-opacity="0.33" stroke="#2a2e3d"/><text x="342.0" y="301.0" fill="#e9e7df" font-size="14" text-anchor="middle">0.0387</text><rect x="18" y="332" width="72" height="72" fill="#9a72e6" fill-opacity="0.12" stroke="#2a2e3d"/><text x="54.0" y="373.0" fill="#e9e7df" font-size="14" text-anchor="middle">0.0352</text><rect x="90" y="332" width="72" height="72" fill="#9a72e6" fill-opacity="0.33" stroke="#2a2e3d"/><text x="126.0" y="373.0" fill="#e9e7df" font-size="14" text-anchor="middle">0.0387</text><rect x="162" y="332" width="72" height="72" fill="#9a72e6" fill-opacity="0.40" stroke="#2a2e3d"/><text x="198.0" y="373.0" fill="#e9e7df" font-size="14" text-anchor="middle">0.0399</text><rect x="234" y="332" width="72" height="72" fill="#9a72e6" fill-opacity="0.33" stroke="#2a2e3d"/><text x="270.0" y="373.0" fill="#e9e7df" font-size="14" text-anchor="middle">0.0387</text><rect x="306" y="332" width="72" height="72" fill="#9a72e6" fill-opacity="0.12" stroke="#2a2e3d"/><text x="342.0" y="373.0" fill="#e9e7df" font-size="14" text-anchor="middle">0.0352</text></svg>