<svg xmlns="http://www.w3.org/2000/svg" viewBox="0 0 268 268" width="268" height="268" font-family="'JetBrains Mono','SFMono-Regular',ui-monospace,monospace"><rect x="0.5" y="0.5" width="267" height="267" rx="14" fill="#171922" stroke="#2a2e3d"/><rect x="18" y="18" width="58" height="58" fill="#1d2030" stroke="#2a2e3d" stroke-width="1.5"/><text x="47.0" y="53.0" fill="#e9e7df" font-size="17" text-anchor="middle" font-weight="700">6<tspan baseline-shift='sub' font-size='12'>0</tspan></text><circle cx="47.0" cy="47.0" r="22.04" fill="none" stroke="#f4c95d" stroke-width="2.5"/><rect x="76" y="18" width="58" height="58" fill="#1d2030" stroke="#2a2e3d" stroke-width="1.5"/><text x="105.0" y="53.0" fill="#e9e7df" font-size="17" text-anchor="middle" font-weight="700">1<tspan baseline-shift='sub' font-size='12'>20</tspan></text><rect x="134" y="18" width="58" height="58" fill="#1d2030" stroke="#2a2e3d" stroke-width="1.5"/><text x="163.0" y="53.0" fill="#e9e7df" font-size="17" text-anchor="middle" font-weight="700">1<tspan baseline-shift='sub' font-size='12'>31</tspan></text><rect x="192" y="18" width="58" height="58" fill="#1d2030" stroke="#2a2e3d" stroke-width="1.5"/><text x="221.0" y="53.0" fill="#e9e7df" font-size="17" text-anchor="middle" font-weight="700">1<tspan baseline-shift='sub' font-size='12'>22</tspan></text><rect x="18" y="76" width="58" height="58" fill="#1d2030" stroke="#2a2e3d" stroke-width="1.5"/><text x="47.0" y="111.0" fill="#e9e7df" font-size="17" text-anchor="middle" font-weight="700">7<tspan baseline-shift='sub' font-size='12'>0</tspan></text><rect x="76" y="76" width="58" height="58" fill="#1d2030" stroke="#2a2e3d" stroke-width="1.5"/><text x="105.0" y="111.0" fill="#e9e7df" font-size="17" text-anchor="middle" font-weight="700">9<tspan baseline-shift='sub' font-size='12'>1</tspan></text><rect x="134" y="76" width="58" height="58" fill="#1d2030" stroke="#2a2e3d" stroke-width="1.5"/><rect x="192" y="76" width="58" height="58" fill="#1d2030" stroke="#2a2e3d" stroke-width="1.5"/><rect x="18" y="134" width="58" height="58" fill="#1d2030" stroke="#2a2e3d" stroke-width="1.5"/><rect x="76" y="134" width="58" height="58" fill="#1d2030" stroke="#2a2e3d" stroke-width="1.5"/><rect x="134" y="134" width="58" height="58" fill="#1d2030" stroke="#2a2e3d" stroke-width="1.5"/><rect x="192" y="134" width="58" height="58" fill="#1d2030" stroke="#2a2e3d" stroke-width="1.5"/><rect x="18" y="192" width="58" height="58" fill="#1d2030" stroke="#2a2e3d" stroke-width="1.5"/><rect x="76" y="192" width="58" height="58" fill="#1d2030" stroke="#2a2e3d" stroke-width="1.5"/><rect x="134" y="192" width="58" height="58" fill="#1d2030" stroke="#2a2e3d" stroke-width="1.5"/><rect x="192" y="192" width="58" height="58" fill="#1d2030" stroke="#2a2e3d" stroke-width="1.5"/></svg>