<svg xmlns="http://www.w3.org/2000/svg" viewBox="0 0 228 228" width="228" height="228" font-family="'JetBrains Mono','SFMono-Regular',ui-monospace,monospace"><rect x="0.5" y="0.5" width="227" height="227" rx="14" fill="#171922" stroke="#2a2e3d"/><rect x="18" y="18" width="64" height="64" fill="#1d2030" stroke="#2a2e3d"/><text x="50.0" y="57.0" fill="#e9e7df" font-size="22" text-anchor="middle" font-weight="500">a</text><rect x="82" y="18" width="64" height="64" fill="#1d2030" stroke="#2a2e3d"/><text x="114.0" y="57.0" fill="#e9e7df" font-size="22" text-anchor="middle" font-weight="500">b</text><rect x="146" y="18" width="64" height="64" fill="#1d2030" stroke="#2a2e3d"/><text x="178.0" y="57.0" fill="#e9e7df" font-size="22" text-anchor="middle" font-weight="500">c</text><rect x="18" y="82" width="64" height="64" fill="#1d2030" stroke="#2a2e3d"/><text x="50.0" y="121.0" fill="#e9e7df" font-size="22" text-anchor="middle" font-weight="500">d</text><rect x="82" y="82" width="64" height="64" fill="#1d2030" stroke="#2a2e3d"/><text x="114.0" y="121.0" fill="#f4c95d" font-size="22" text-anchor="middle" font-weight="800">e</text><rect x="146" y="82" width="64" height="64" fill="#1d2030" stroke="#2a2e3d"/><text x="178.0" y="121.0" fill="#e9e7df" font-size="22" text-anchor="middle" font-weight="500">f</text><rect x="18" y="146" width="64" height="64" fill="#1d2030" stroke="#2a2e3d"/><text x="50.0" y="185.0" fill="#e9e7df" font-size="22" text-anchor="middle" font-weight="500">h</text><rect x="82" y="146" width="64" height="64" fill="#1d2030" stroke="#2a2e3d"/><text x="114.0" y="185.0" fill="#e9e7df" font-size="22" text-anchor="middle" font-weight="500">h</text><rect x="146" y="146" width="64" height="64" fill="#1d2030" stroke="#2a2e3d"/><text x="178.0" y="185.0" fill="#e9e7df" font-size="22" text-anchor="middle" font-weight="500">i</text></svg>