<svg xmlns="http://www.w3.org/2000/svg" viewBox="0 0 900 200" width="900" height="200" font-family="'JetBrains Mono','SFMono-Regular',ui-monospace,monospace"><rect x="0.5" y="0.5" width="899" height="199" rx="14" fill="#171922" stroke="#2a2e3d"/><text x="450.0" y="34" fill="#e9e7df" font-size="14" text-anchor="middle" font-weight="700">Prewitt = averaging filter  &#8855;  edge detector</text><rect x="40" y="94" width="50" height="50" fill="#1d2030" stroke="#2a2e3d"/><text x="65.0" y="125.0" fill="#5cd1e6" font-size="17" text-anchor="middle" font-weight="700">1</text><rect x="90" y="94" width="50" height="50" fill="#1d2030" stroke="#2a2e3d"/><text x="115.0" y="125.0" fill="#5cd1e6" font-size="17" text-anchor="middle" font-weight="700">1</text><rect x="140" y="94" width="50" height="50" fill="#1d2030" stroke="#2a2e3d"/><text x="165.0" y="125.0" fill="#5cd1e6" font-size="17" text-anchor="middle" font-weight="700">1</text><text x="214" y="127.0" fill="#f4c95d" font-size="26" text-anchor="middle">&#8855;</text><rect x="238" y="44" width="50" height="50" fill="#1d2030" stroke="#2a2e3d"/><text x="263.0" y="75.0" fill="#ff8278" font-size="17" text-anchor="middle" font-weight="700">-1</text><rect x="238" y="94" width="50" height="50" fill="#1d2030" stroke="#2a2e3d"/><text x="263.0" y="125.0" fill="#5b6072" font-size="17" text-anchor="middle" font-weight="700">0</text><rect x="238" y="144" width="50" height="50" fill="#1d2030" stroke="#2a2e3d"/><text x="263.0" y="175.0" fill="#5cd1e6" font-size="17" text-anchor="middle" font-weight="700">1</text><text x="312" y="127.0" fill="#e9e7df" font-size="26" text-anchor="middle">=</text><rect x="342" y="44" width="50" height="50" fill="#1d2030" stroke="#2a2e3d"/><text x="367.0" y="75.0" fill="#ff8278" font-size="17" text-anchor="middle" font-weight="700">-1</text><rect x="392" y="44" width="50" height="50" fill="#1d2030" stroke="#2a2e3d"/><text x="417.0" y="75.0" fill="#ff8278" font-size="17" text-anchor="middle" font-weight="700">-1</text><rect x="442" y="44" width="50" height="50" fill="#1d2030" stroke="#2a2e3d"/><text x="467.0" y="75.0" fill="#ff8278" font-size="17" text-anchor="middle" font-weight="700">-1</text><rect x="342" y="94" width="50" height="50" fill="#1d2030" stroke="#2a2e3d"/><text x="367.0" y="125.0" fill="#5b6072" font-size="17" text-anchor="middle" font-weight="700">0</text><rect x="392" y="94" width="50" height="50" fill="#1d2030" stroke="#2a2e3d"/><text x="417.0" y="125.0" fill="#5b6072" font-size="17" text-anchor="middle" font-weight="700">0</text><rect x="442" y="94" width="50" height="50" fill="#1d2030" stroke="#2a2e3d"/><text x="467.0" y="125.0" fill="#5b6072" font-size="17" text-anchor="middle" font-weight="700">0</text><rect x="342" y="144" width="50" height="50" fill="#1d2030" stroke="#2a2e3d"/><text x="367.0" y="175.0" fill="#5cd1e6" font-size="17" text-anchor="middle" font-weight="700">1</text><rect x="392" y="144" width="50" height="50" fill="#1d2030" stroke="#2a2e3d"/><text x="417.0" y="175.0" fill="#5cd1e6" font-size="17" text-anchor="middle" font-weight="700">1</text><rect x="442" y="144" width="50" height="50" fill="#1d2030" stroke="#2a2e3d"/><text x="467.0" y="175.0" fill="#5cd1e6" font-size="17" text-anchor="middle" font-weight="700">1</text></svg>