<svg xmlns="http://www.w3.org/2000/svg" viewBox="0 0 424 236" width="424" height="236" font-family="'JetBrains Mono','SFMono-Regular',ui-monospace,monospace"><rect x="0.5" y="0.5" width="423" height="235" rx="14" fill="#171922" stroke="#2a2e3d"/><text x="105.0" y="34" fill="#e9e7df" font-size="13" text-anchor="middle" font-weight="700">horizontal</text><rect x="18" y="44" width="58" height="58" fill="#1d2030" stroke="#9a72e6" stroke-width="1.5"/><text x="47.0" y="79.0" fill="#ff8278" font-size="19" text-anchor="middle" font-weight="700">-1</text><rect x="76" y="44" width="58" height="58" fill="#1d2030" stroke="#9a72e6" stroke-width="1.5"/><text x="105.0" y="79.0" fill="#ff8278" font-size="19" text-anchor="middle" font-weight="700">-2</text><rect x="134" y="44" width="58" height="58" fill="#1d2030" stroke="#9a72e6" stroke-width="1.5"/><text x="163.0" y="79.0" fill="#ff8278" font-size="19" text-anchor="middle" font-weight="700">-1</text><rect x="18" y="102" width="58" height="58" fill="#1d2030" stroke="#9a72e6" stroke-width="1.5"/><text x="47.0" y="137.0" fill="#5b6072" font-size="19" text-anchor="middle" font-weight="700">0</text><rect x="76" y="102" width="58" height="58" fill="#1d2030" stroke="#9a72e6" stroke-width="1.5"/><text x="105.0" y="137.0" fill="#5b6072" font-size="19" text-anchor="middle" font-weight="700">0</text><rect x="134" y="102" width="58" height="58" fill="#1d2030" stroke="#9a72e6" stroke-width="1.5"/><text x="163.0" y="137.0" fill="#5b6072" font-size="19" text-anchor="middle" font-weight="700">0</text><rect x="18" y="160" width="58" height="58" fill="#1d2030" stroke="#9a72e6" stroke-width="1.5"/><text x="47.0" y="195.0" fill="#5cd1e6" font-size="19" text-anchor="middle" font-weight="700">1</text><rect x="76" y="160" width="58" height="58" fill="#1d2030" stroke="#9a72e6" stroke-width="1.5"/><text x="105.0" y="195.0" fill="#5cd1e6" font-size="19" text-anchor="middle" font-weight="700">2</text><rect x="134" y="160" width="58" height="58" fill="#1d2030" stroke="#9a72e6" stroke-width="1.5"/><text x="163.0" y="195.0" fill="#5cd1e6" font-size="19" text-anchor="middle" font-weight="700">1</text><text x="319.0" y="34" fill="#e9e7df" font-size="13" text-anchor="middle" font-weight="700">vertical</text><rect x="232" y="44" width="58" height="58" fill="#1d2030" stroke="#9a72e6" stroke-width="1.5"/><text x="261.0" y="79.0" fill="#ff8278" font-size="19" text-anchor="middle" font-weight="700">-1</text><rect x="290" y="44" width="58" height="58" fill="#1d2030" stroke="#9a72e6" stroke-width="1.5"/><text x="319.0" y="79.0" fill="#5b6072" font-size="19" text-anchor="middle" font-weight="700">0</text><rect x="348" y="44" width="58" height="58" fill="#1d2030" stroke="#9a72e6" stroke-width="1.5"/><text x="377.0" y="79.0" fill="#5cd1e6" font-size="19" text-anchor="middle" font-weight="700">1</text><rect x="232" y="102" width="58" height="58" fill="#1d2030" stroke="#9a72e6" stroke-width="1.5"/><text x="261.0" y="137.0" fill="#ff8278" font-size="19" text-anchor="middle" font-weight="700">-2</text><rect x="290" y="102" width="58" height="58" fill="#1d2030" stroke="#9a72e6" stroke-width="1.5"/><text x="319.0" y="137.0" fill="#5b6072" font-size="19" text-anchor="middle" font-weight="700">0</text><rect x="348" y="102" width="58" height="58" fill="#1d2030" stroke="#9a72e6" stroke-width="1.5"/><text x="377.0" y="137.0" fill="#5cd1e6" font-size="19" text-anchor="middle" font-weight="700">2</text><rect x="232" y="160" width="58" height="58" fill="#1d2030" stroke="#9a72e6" stroke-width="1.5"/><text x="261.0" y="195.0" fill="#ff8278" font-size="19" text-anchor="middle" font-weight="700">-1</text><rect x="290" y="160" width="58" height="58" fill="#1d2030" stroke="#9a72e6" stroke-width="1.5"/><text x="319.0" y="195.0" fill="#5b6072" font-size="19" text-anchor="middle" font-weight="700">0</text><rect x="348" y="160" width="58" height="58" fill="#1d2030" stroke="#9a72e6" stroke-width="1.5"/><text x="377.0" y="195.0" fill="#5cd1e6" font-size="19" text-anchor="middle" font-weight="700">1</text></svg>