<svg xmlns="http://www.w3.org/2000/svg" viewBox="0 0 446 268" width="446" height="268" font-family="'JetBrains Mono','SFMono-Regular',ui-monospace,monospace"><rect x="0.5" y="0.5" width="445" height="267" rx="14" fill="#171922" stroke="#2a2e3d"/><text x="96.0" y="33" fill="#8a90a0" font-size="12" text-anchor="middle">template W</text><text x="324.0" y="33" fill="#8a90a0" font-size="12" text-anchor="middle">image I</text><rect x="18" y="42" width="52" height="52" fill="#c1c1c1" stroke="#9a72e6" stroke-width="1.5"/><rect x="70" y="42" width="52" height="52" fill="#f5f5f5" stroke="#9a72e6" stroke-width="1.5"/><rect x="122" y="42" width="52" height="52" fill="#f5f5f5" stroke="#9a72e6" stroke-width="1.5"/><rect x="18" y="94" width="52" height="52" fill="#8b8b8b" stroke="#9a72e6" stroke-width="1.5"/><rect x="70" y="94" width="52" height="52" fill="#f5f5f5" stroke="#9a72e6" stroke-width="1.5"/><rect x="122" y="94" width="52" height="52" fill="#f5f5f5" stroke="#9a72e6" stroke-width="1.5"/><rect x="18" y="146" width="52" height="52" fill="#686868" stroke="#9a72e6" stroke-width="1.5"/><rect x="70" y="146" width="52" height="52" fill="#a5a5a5" stroke="#9a72e6" stroke-width="1.5"/><rect x="122" y="146" width="52" height="52" fill="#f5f5f5" stroke="#9a72e6" stroke-width="1.5"/><circle cx="96.0" cy="120.0" r="13" fill="none" stroke="#9a72e6" stroke-width="2"/><rect x="220" y="42" width="52" height="52" fill="#0e0e0e" stroke="#9a72e6" stroke-width="2"/><rect x="272" y="42" width="52" height="52" fill="#0e0e0e" stroke="#9a72e6" stroke-width="2"/><rect x="324" y="42" width="52" height="52" fill="#f5f5f5" stroke="#9a72e6" stroke-width="2"/><rect x="376" y="42" width="52" height="52" fill="#f5f5f5" stroke="#2a2e3d" stroke-width="1"/><rect x="220" y="94" width="52" height="52" fill="#444444" stroke="#9a72e6" stroke-width="2"/><rect x="272" y="94" width="52" height="52" fill="#f5f5f5" stroke="#9a72e6" stroke-width="2"/><rect x="324" y="94" width="52" height="52" fill="#a5a5a5" stroke="#9a72e6" stroke-width="2"/><rect x="376" y="94" width="52" height="52" fill="#f5f5f5" stroke="#2a2e3d" stroke-width="1"/><rect x="220" y="146" width="52" height="52" fill="#f5f5f5" stroke="#9a72e6" stroke-width="2"/><rect x="272" y="146" width="52" height="52" fill="#8b8b8b" stroke="#9a72e6" stroke-width="2"/><rect x="324" y="146" width="52" height="52" fill="#f5f5f5" stroke="#9a72e6" stroke-width="2"/><rect x="376" y="146" width="52" height="52" fill="#f5f5f5" stroke="#2a2e3d" stroke-width="1"/><rect x="220" y="198" width="52" height="52" fill="#f5f5f5" stroke="#2a2e3d" stroke-width="1"/><rect x="272" y="198" width="52" height="52" fill="#686868" stroke="#2a2e3d" stroke-width="1"/><rect x="324" y="198" width="52" height="52" fill="#c1c1c1" stroke="#2a2e3d" stroke-width="1"/><rect x="376" y="198" width="52" height="52" fill="#f5f5f5" stroke="#2a2e3d" stroke-width="1"/><circle cx="298.0" cy="120.0" r="13" fill="none" stroke="#9a72e6" stroke-width="2"/></svg>